<svg xmlns="http://www.w3.org/2000/svg" viewBox="0 0 531.25 424.15"><defs><style>.cls-1{fill:#f9f9f9;}.cls-2{fill:#d3d3d3;}.cls-3,.cls-4{fill:none;stroke-miterlimit:10;stroke-width:8px;}.cls-3{stroke:#ff0;}.cls-4{stroke:#bfbf00;}.cls-5{fill:#c3997d;}.cls-6{fill:#ac1f23;opacity:0.5;}</style></defs><title>mix5</title><g id="Layer_2" data-name="Layer 2"><g id="Layer_1_copy_2" data-name="Layer 1 copy 2"><path class="cls-1" d="M405.78,137.81c.44-.73.89-1.44,1.34-2.13C406.67,136.37,406.22,137.07,405.78,137.81Z"/><path class="cls-1" d="M408.82,133.28q.68-.9,1.38-1.73Q409.5,132.38,408.82,133.28Z"/><path class="cls-1" d="M407.27,135.45c.44-.65.89-1.28,1.34-1.9Q407.93,134.48,407.27,135.45Z"/><path class="cls-1" d="M404.47,140.11c.42-.78.85-1.54,1.29-2.27C405.32,138.57,404.89,139.33,404.47,140.11Z"/><path class="cls-1" d="M399.52,151.23q.5-1.36,1-2.66Q400,149.88,399.52,151.23Z"/><path class="cls-1" d="M400.68,148.21q.51-1.27,1-2.48Q401.2,146.94,400.68,148.21Z"/><path class="cls-1" d="M401.91,145.33q.54-1.21,1.1-2.37Q402.45,144.12,401.91,145.33Z"/><path class="cls-1" d="M403.18,142.62c.39-.79.78-1.56,1.19-2.31C404,141.06,403.56,141.83,403.18,142.62Z"/><path class="cls-1" d="M413.69,127.92q.8-.72,1.63-1.36Q414.5,127.2,413.69,127.92Z"/><path class="cls-1" d="M423.19,122.55c.64-.18,1.29-.33,1.94-.44C424.48,122.23,423.83,122.38,423.19,122.55Z"/><path class="cls-1" d="M421.2,123.21c.59-.23,1.19-.44,1.8-.61C422.39,122.78,421.79,123,421.2,123.21Z"/><path class="cls-1" d="M413.61,128c-.53.47-1,1-1.55,1.5C412.57,129,413.08,128.46,413.61,128Z"/><path class="cls-1" d="M419.23,124.09q.84-.43,1.71-.78Q420.07,123.67,419.23,124.09Z"/><path class="cls-1" d="M417.3,125.19c.55-.35,1.1-.66,1.66-1C418.4,124.53,417.84,124.84,417.3,125.19Z"/><path class="cls-1" d="M390,209.65c-.09,3.93-.09,7.87,0,11.79C389.86,217.51,389.86,213.58,390,209.65Z"/><path class="cls-1" d="M398.44,154.33q.49-1.46,1-2.87Q398.93,152.87,398.44,154.33Z"/><path class="cls-1" d="M410.42,131.28c.47-.55,1-1.09,1.44-1.6Q411.13,130.45,410.42,131.28Z"/><path class="cls-1" d="M415.42,126.49c.55-.42,1.1-.8,1.66-1.16C416.52,125.69,416,126.08,415.42,126.49Z"/><path class="cls-1" d="M390.28,201.37q.1-1.86.24-3.72Q390.38,199.5,390.28,201.37Z"/><path class="cls-1" d="M391.21,189.74q.19-1.78.41-3.55Q391.4,188,391.21,189.74Z"/><path class="cls-1" d="M390,209.42q0-1.86.12-3.72Q390,207.56,390,209.42Z"/><path class="cls-1" d="M390.52,197.51q.28-3.82.67-7.57Q390.8,193.69,390.52,197.51Z"/><path class="cls-1" d="M390.09,205.36q.07-1.84.17-3.67Q390.16,203.52,390.09,205.36Z"/><path class="cls-1" d="M428.67,121.81a20.69,20.69,0,0,0-3.53.3,92.55,92.55,0,0,1-6,184.64c-14.07-7.18-23.07-30.31-27-57.9,4.75,33.36,16.92,60.22,36.5,60.22a93.63,93.63,0,0,0,0-187.26Z"/><path class="cls-1" d="M392.16,248.79c-.89-6.24-1.51-12.7-1.88-19.26C390.65,236.1,391.27,242.56,392.16,248.79Z"/><path class="cls-1" d="M390.27,229.38q-.11-1.9-.18-3.81Q390.16,227.48,390.27,229.38Z"/><path class="cls-1" d="M390.08,225.38q-.08-1.92-.12-3.85Q390,223.46,390.08,225.38Z"/><path class="cls-1" d="M392.18,181.94q.24-1.69.51-3.37Q392.42,180.25,392.18,181.94Z"/><path class="cls-1" d="M395.65,164q.38-1.5.78-3Q396,162.47,395.65,164Z"/><path class="cls-1" d="M394,171.13q.34-1.66.7-3.28Q394.37,169.47,394,171.13Z"/><path class="cls-1" d="M394.81,167.49q.35-1.56.73-3.08Q395.17,165.94,394.81,167.49Z"/><path class="cls-1" d="M396.55,160.56q.41-1.48.84-2.92Q397,159.09,396.55,160.56Z"/><path class="cls-1" d="M392.75,178.21q.28-1.72.58-3.41Q393,176.49,392.75,178.21Z"/><path class="cls-1" d="M397.49,157.33c.3-1,.61-2,.94-3Q397.94,155.83,397.49,157.33Z"/><path class="cls-1" d="M391.67,185.8q.21-1.72.45-3.42Q391.88,184.08,391.67,185.8Z"/><path class="cls-1" d="M393.36,174.66q.31-1.73.66-3.43Q393.67,172.92,393.36,174.66Z"/><path class="cls-2" d="M416.39,121.7c-6.73,0-12.57,3.21-17.53,8.78a22.25,22.25,0,0,1,7.05-1.13c51.71,0,93.63,38.21,93.63,85.34S457.63,300,405.92,300a22.33,22.33,0,0,1-5.92-.79c4.71,4.82,10.17,7.57,16.39,7.57a92.55,92.55,0,0,0,0-185.1Z"/><path class="cls-2" d="M419,103.21c-9.62,0-17.75,5.41-24.39,14.56,18.62,2.25,33.58,4,34,4a93.63,93.63,0,0,1,0,187.26c-19.58,0-41.08-.56-45.83-33.93.52,3.62-.22,6.13-1.83,7.79,7.58,26.31,20.25,44.74,38,44.74a112.23,112.23,0,1,0,0-224.47Z"/><path class="cls-1" d="M125.47,294.08c-.44.73-.89,1.44-1.34,2.13C124.58,295.51,125,294.81,125.47,294.08Z"/><path class="cls-1" d="M122.43,298.61q-.68.9-1.38,1.73Q121.75,299.5,122.43,298.61Z"/><path class="cls-1" d="M124,296.43c-.44.65-.89,1.28-1.34,1.9Q123.32,297.4,124,296.43Z"/><path class="cls-1" d="M126.78,291.77c-.42.78-.85,1.54-1.29,2.27C125.93,293.31,126.36,292.55,126.78,291.77Z"/><path class="cls-1" d="M131.73,280.65q-.5,1.36-1,2.66Q131.23,282,131.73,280.65Z"/><path class="cls-1" d="M130.57,283.67q-.51,1.27-1,2.48Q130.05,284.94,130.57,283.67Z"/><path class="cls-1" d="M129.34,286.55q-.54,1.21-1.1,2.37Q128.81,287.76,129.34,286.55Z"/><path class="cls-1" d="M128.08,289.26c-.39.79-.78,1.56-1.19,2.31C127.29,290.82,127.69,290,128.08,289.26Z"/><path class="cls-1" d="M117.56,304q-.8.72-1.63,1.36Q116.76,304.68,117.56,304Z"/><path class="cls-1" d="M108.06,309.33c-.64.18-1.29.33-1.94.44C106.77,309.66,107.42,309.5,108.06,309.33Z"/><path class="cls-1" d="M110.05,308.67c-.59.23-1.19.44-1.8.61C108.86,309.1,109.46,308.9,110.05,308.67Z"/><path class="cls-1" d="M117.64,303.89c.53-.47,1-1,1.55-1.5C118.68,302.91,118.17,303.42,117.64,303.89Z"/><path class="cls-1" d="M112,307.79q-.84.43-1.71.78Q111.18,308.22,112,307.79Z"/><path class="cls-1" d="M114,306.69c-.55.35-1.1.66-1.66,1C112.85,307.36,113.41,307,114,306.69Z"/><path class="cls-1" d="M141.3,222.23c.09-3.93.09-7.87,0-11.79C141.39,214.37,141.39,218.31,141.3,222.23Z"/><path class="cls-1" d="M132.81,277.55q-.49,1.46-1,2.87Q132.33,279,132.81,277.55Z"/><path class="cls-1" d="M120.83,300.6c-.47.55-1,1.09-1.44,1.6Q120.12,301.43,120.83,300.6Z"/><path class="cls-1" d="M115.83,305.39c-.55.42-1.1.8-1.66,1.16C114.73,306.19,115.29,305.81,115.83,305.39Z"/><path class="cls-1" d="M141,230.51q-.1,1.86-.24,3.72Q140.87,232.38,141,230.51Z"/><path class="cls-1" d="M140,242.14q-.19,1.78-.41,3.55Q139.85,243.93,140,242.14Z"/><path class="cls-1" d="M141.3,222.46q0,1.86-.12,3.72Q141.25,224.33,141.3,222.46Z"/><path class="cls-1" d="M140.73,234.37q-.28,3.82-.67,7.57Q140.45,238.19,140.73,234.37Z"/><path class="cls-1" d="M141.17,226.52q-.07,1.84-.17,3.67Q141.09,228.36,141.17,226.52Z"/><path class="cls-1" d="M102.59,310.07a20.69,20.69,0,0,0,3.53-.3,92.55,92.55,0,0,1,6-184.64c14.07,7.18,23.07,30.31,27,57.9-4.75-33.36-16.92-60.22-36.5-60.22a93.63,93.63,0,0,0,0,187.26Z"/><path class="cls-1" d="M139.09,183.09c.89,6.24,1.51,12.7,1.88,19.26C140.6,195.79,140,189.32,139.09,183.09Z"/><path class="cls-1" d="M141,202.5q.11,1.9.18,3.81Q141.09,204.4,141,202.5Z"/><path class="cls-1" d="M141.17,206.51q.08,1.92.12,3.85Q141.25,208.43,141.17,206.51Z"/><path class="cls-1" d="M139.07,249.94q-.24,1.69-.51,3.37Q138.83,251.63,139.07,249.94Z"/><path class="cls-1" d="M135.6,267.92q-.38,1.5-.78,3Q135.22,269.42,135.6,267.92Z"/><path class="cls-1" d="M137.22,260.75q-.34,1.66-.7,3.28Q136.88,262.41,137.22,260.75Z"/><path class="cls-1" d="M136.44,264.39q-.35,1.56-.73,3.08Q136.09,265.94,136.44,264.39Z"/><path class="cls-1" d="M134.7,271.32q-.41,1.48-.84,2.92Q134.3,272.8,134.7,271.32Z"/><path class="cls-1" d="M138.5,253.67q-.28,1.72-.58,3.41Q138.22,255.39,138.5,253.67Z"/><path class="cls-1" d="M133.76,274.56c-.3,1-.61,2-.94,3Q133.31,276.06,133.76,274.56Z"/><path class="cls-1" d="M139.59,246.08q-.21,1.72-.45,3.42Q139.37,247.8,139.59,246.08Z"/><path class="cls-1" d="M137.89,257.23q-.31,1.73-.66,3.43Q137.58,259,137.89,257.23Z"/><path class="cls-2" d="M114.86,310.18c6.73,0,12.57-3.21,17.53-8.78a22.25,22.25,0,0,1-7.05,1.13c-51.71,0-93.63-38.21-93.63-85.34s41.92-85.34,93.63-85.34a22.33,22.33,0,0,1,5.92.79c-4.71-4.82-10.17-7.57-16.39-7.57a92.55,92.55,0,0,0,0,185.1Z"/><path class="cls-2" d="M112.23,328.67c9.62,0,17.75-5.41,24.39-14.56-18.62-2.25-33.58-4-34-4a93.63,93.63,0,0,1,0-187.26c19.58,0,41.08.56,45.83,33.93-.52-3.62.22-6.13,1.83-7.79-7.58-26.31-20.25-44.74-38-44.74a112.23,112.23,0,0,0,0,224.47Z"/><circle class="cls-2" cx="266.52" cy="212.07" r="212.07"/><circle class="cls-1" cx="266.29" cy="211.65" r="199.17"/><circle class="cls-2" cx="266.29" cy="211.65" r="177.67"/><path class="cls-3" d="M313.2,199.16c13.57-21.11,27.14-78.41,0-58.8s-52.77,60.31-33.17,58.8,36.19-78.41,12.06-78.41,7.54,75.94,55.79,65.11,16.59-69.64-7.54-65.11-54.09,92-17.25,102.53,59.46-25.63,26.29-61.82-110.07,28.65-60.31-54.28,58.8,137.21,43.73,138.72"/><path class="cls-4" d="M288.88,177.71c24.37-6,73.64-38.22,40.46-42.67s-79.79,7.45-64.53,19.85,80.21-32,62.7-48.6-46.78,60.3-4.32,85.63,59.95-39.12,39.33-52.44S260,169,279.46,202s60.79,22.31,61.62-26.77-99.58-54.95-6.42-80.89-51.74,140-63.72,130.75"/><path class="cls-3" d="M263.86,170.59c25.09-.22,80.46-20.27,49.19-32.23s-79.37-11.09-67.37,4.48,85.41-12.7,72.19-32.88S258.48,157.89,294,192.32s67.34-24.29,50.33-42-106.58,5.16-95.21,41.77,54,35.69,66.12-11.89-84.29-76.37,12.35-80.2S245,224.39,235.51,212.61"/><path class="cls-5" d="M336.18,122.34s-47.4-4.51-57.56,21.44,10.16,45.14,10.16,45.14,33.86,16.93,47.4,16.93S368.56,181,379.46,181s32.34-9,32.34-24.83-15-33.33-32.34-34.16S336.18,122.34,336.18,122.34Z"/><path class="cls-3" d="M187.2,271.16c13.57-21.11,27.14-78.41,0-58.8s-52.77,60.31-33.17,58.8,36.19-78.41,12.06-78.41,7.54,75.94,55.79,65.11,16.59-69.64-7.54-65.11-54.09,92-17.25,102.53,59.46-25.63,26.29-61.82-110.07,28.65-60.31-54.28,58.8,137.21,43.73,138.72"/><path class="cls-4" d="M162.88,249.71c24.37-6,73.64-38.22,40.46-42.67s-79.79,7.45-64.53,19.85,80.21-32,62.7-48.6-46.78,60.3-4.32,85.63,59.95-39.12,39.33-52.44S134,241,153.46,274s60.79,22.31,61.62-26.77-99.58-54.95-6.42-80.89-51.74,140-63.72,130.75"/><path class="cls-3" d="M137.86,242.59c25.09-.22,80.46-20.27,49.19-32.23s-79.37-11.09-67.37,4.48,85.41-12.7,72.19-32.88S132.48,229.89,168,264.32s67.34-24.29,50.33-42-106.58,5.16-95.21,41.77,54,35.69,66.12-11.89-84.29-76.37,12.35-80.2S119,296.39,109.51,284.61"/><path class="cls-3" d="M230.2,173.16c13.57-21.11,27.14-78.41,0-58.8s-52.77,60.31-33.17,58.8,36.19-78.41,12.06-78.41,7.54,75.94,55.79,65.11,16.59-69.64-7.54-65.11-54.09,92-17.25,102.53,59.46-25.63,26.29-61.82-110.07,28.65-60.31-54.28,58.8,137.21,43.73,138.72"/><path class="cls-4" d="M205.88,151.71c24.37-6,73.64-38.22,40.46-42.67s-79.79,7.45-64.53,19.85,80.21-32,62.7-48.6-46.78,60.3-4.32,85.63,59.95-39.12,39.33-52.44S177,143,196.46,176s60.79,22.31,61.62-26.77-99.58-54.95-6.42-80.89-51.74,140-63.72,130.75"/><path class="cls-3" d="M180.86,144.59c25.09-.22,80.46-20.27,49.19-32.23s-79.37-11.09-67.37,4.48S248.1,104.15,234.88,84,175.48,131.89,211,166.32s67.34-24.29,50.33-42-106.58,5.16-95.21,41.77,54,35.69,66.12-11.89S147.94,77.84,244.57,74,162,198.39,152.51,186.61"/><path class="cls-6" d="M118.95,259.82s-23.59-59.58,7.84-93.73,65.65-16.78,84.94-40.57S270.58,44,319.48,67.12s47.93,64,47.93,64-3.93,44.77,30.5,72,25.85,82,1.68,98.28-47.68,65.14-109.06,28.73S203,325.51,203,325.51s-24.63,15.72-50.18-1.31S117.43,271.73,118.95,259.82Z"/><path class="cls-5" d="M249,194.55s45.46-22.94,68.06-19.19,33.55,27.69,34.19,35.42,4.92,30,10.69,32.21,13.55,59.74-26.52,66.74-83.57-33.45-83.57-33.45S214.72,227.37,249,194.55Z"/><path class="cls-5" d="M274,259.89s5.94,11.53,2,23.76-17.12,15.19-26,12.44-28.3,5.52-28.3,5.52-31.21,7-36.45-12.78,23-39,23-39,29,1.61,47.38,5.85S259.65,247.41,274,259.89Z"/><path class="cls-5" d="M239.61,174s-2.62-17,10.49-21.29,22.72,2,29.72,10.65a55.59,55.59,0,0,1,9.61,19.11s3.51,22.72-13.54,21.85-32.78-8.74-32.78-12.24S239.61,174,239.61,174Z"/><path class="cls-5" d="M137,128s28.22-24,50.09-18.34S216,123,218.85,137.83,200.51,171,200.51,171s-20.9,14.54-22.44,21.38-33.28,24.2-50.92,0S137,128,137,128Z"/><path class="cls-3" d="M262.2,335.16c13.57-21.11,27.14-78.41,0-58.8s-52.77,60.31-33.17,58.8,36.19-78.41,12.06-78.41,7.54,75.94,55.79,65.11,16.59-69.64-7.54-65.11-54.09,92-17.25,102.53,59.46-25.63,26.29-61.82-110.07,28.65-60.31-54.28,58.8,137.21,43.73,138.72"/><path class="cls-4" d="M237.88,313.71c24.37-6,73.64-38.22,40.46-42.67s-79.79,7.45-64.53,19.85,80.21-32,62.7-48.6-46.78,60.3-4.32,85.63,59.95-39.12,39.33-52.44S209,305,228.46,338s60.79,22.31,61.62-26.77-99.58-54.95-6.42-80.89-51.74,140-63.72,130.75"/><path class="cls-3" d="M212.86,306.59c25.09-.22,80.46-20.27,49.19-32.23s-79.37-11.09-67.37,4.48,85.41-12.7,72.19-32.88S207.48,293.89,243,328.32s67.34-24.29,50.33-42-106.58,5.16-95.21,41.77,54,35.69,66.12-11.89-84.29-76.37,12.35-80.2S194,360.39,184.51,348.61"/><path class="cls-3" d="M357.2,291.16c13.57-21.11,27.14-78.41,0-58.8s-52.77,60.31-33.17,58.8,36.19-78.41,12.06-78.41,7.54,75.94,55.79,65.11,16.59-69.64-7.54-65.11-54.09,92-17.25,102.53,59.46-25.63,26.29-61.82-110.07,28.65-60.31-54.28,58.8,137.21,43.73,138.72"/><path class="cls-4" d="M332.88,269.71c24.37-6,73.64-38.22,40.46-42.67s-79.79,7.45-64.53,19.85,80.21-32,62.7-48.6-46.78,60.3-4.32,85.63,59.95-39.12,39.33-52.44S304,261,323.46,294s60.79,22.31,61.62-26.77-99.58-54.95-6.42-80.89-51.74,140-63.72,130.75"/><path class="cls-3" d="M307.86,262.59c25.09-.22,80.46-20.27,49.19-32.23s-79.37-11.09-67.37,4.48,85.41-12.7,72.19-32.88S302.48,249.89,338,284.32s67.34-24.29,50.33-42-106.58,5.16-95.21,41.77,54,35.69,66.12-11.89-84.29-76.37,12.35-80.2S289,316.39,279.51,304.61"/></g></g></svg>