<svg xmlns="http://www.w3.org/2000/svg" viewBox="0 0 861.63 720"><defs><style>.cls-1{fill:#dd8262;}.cls-2,.cls-4{fill:none;stroke-miterlimit:10;stroke-width:8px;}.cls-2{stroke:#ff0;}.cls-3{fill:#ccc;}.cls-4{stroke:#bfbf00;}.cls-5{fill:#fff;}.cls-6{fill:#f6c9b7;}</style></defs><title>mouthClose</title><g id="Layer_2" data-name="Layer 2"><g id="Layer_1_copy_2" data-name="Layer 1 copy 2"><path class="cls-1" d="M433.54,386.94S625.45,454.11,430,512.4L628.77,716.55,821,432.84,669,224.18Z"/><path class="cls-2" d="M449.2,488.66c13.57-21.11,27.14-78.41,0-58.8s-52.77,60.31-33.17,58.8,36.19-78.41,12.06-78.41,7.54,75.94,55.79,65.11,16.59-69.64-7.54-65.11-54.09,92-17.25,102.53,59.46-25.63,26.29-61.82-110.07,28.65-60.31-54.28,58.8,137.21,43.73,138.72"/><path class="cls-3" d="M392.67,481.9l31.46-.12c24.7-.1,60.82-5.21,73.43-10.43,22.57-8.81,28.57-20.7,28.57-20.7l-29.65,8.41A272.59,272.59,0,0,1,423,469.49l-30.38.12Z"/><path class="cls-3" d="M392.67,463.75l31.46-.12c24.7-.1,60.82-5.21,73.43-10.43,22.57-8.81,28.57-20.7,28.57-20.7l-29.65,8.41A272.59,272.59,0,0,1,423,451.34l-30.38.12Z"/><path class="cls-3" d="M392.67,446.46l31.46-.12c24.7-.1,60.82-5.21,73.43-10.43,22.57-8.81,28.57-20.7,28.57-20.7l-29.65,8.41A272.59,272.59,0,0,1,423,434.06l-30.38.16Z"/><path class="cls-3" d="M336.57,434.2h56.1a0,0,0,0,1,0,0v66.92a0,0,0,0,1,0,0H355.44a42.9,42.9,0,0,1-42.9-42.9v0A24,24,0,0,1,336.57,434.2Z"/><path class="cls-3" d="M392.67,501.13l31.46-.12c24.7-.1,60.82-5.21,73.43-10.43,22.57-8.81,28.57-20.7,28.57-20.7l-29.65,8.41A272.59,272.59,0,0,1,423,488.73l-30.38.12Z"/><path class="cls-3" d="M318.78,472.92l-6.48-2.75a217.56,217.56,0,0,0-69.08-16.74L0,444.85v-29l243.22,8.58a217.56,217.56,0,0,1,69.08,16.74l6.48,2.75Z"/><path class="cls-4" d="M424.88,467.21c24.37-6,73.64-38.22,40.46-42.67s-79.79,7.45-64.53,19.85,80.21-32,62.7-48.6-46.78,60.3-4.32,85.63S519.14,442.3,498.52,429,396,458.51,415.46,491.52s60.79,22.31,61.62-26.77-99.58-54.95-6.42-80.89-51.74,140-63.72,130.75"/><path class="cls-2" d="M399.87,460.09c25.09-.22,80.46-20.27,49.19-32.23s-79.37-11.09-67.37,4.48,85.41-12.7,72.19-32.88S394.49,447.39,430,481.81s67.34-24.29,50.33-42S373.74,445,385.11,481.59s54,35.69,66.12-11.89-84.29-76.37,12.35-80.2S381,513.89,371.51,502.11"/><path class="cls-5" d="M453.48,377.56h21.3a12,12,0,0,1,12,12v29.86a13,13,0,0,1-13,13H455.25a8.77,8.77,0,0,1-8.77-8.77V384.56a7,7,0,0,1,7-7Z"/><path class="cls-5" d="M493.78,377.56h21.3a12,12,0,0,1,12,12v29.86a13,13,0,0,1-13,13H495.55a8.77,8.77,0,0,1-8.77-8.77V384.56a7,7,0,0,1,7-7Z"/><path class="cls-5" d="M534.08,377.56h21.3a12,12,0,0,1,12,12v29.86a13,13,0,0,1-13,13H535.85a8.77,8.77,0,0,1-8.77-8.77V384.56a7,7,0,0,1,7-7Z"/><path class="cls-5" d="M574.38,377.56h21.3a12,12,0,0,1,12,12v29.86a13,13,0,0,1-13,13H576.15a8.77,8.77,0,0,1-8.77-8.77V384.56a7,7,0,0,1,7-7Z"/><path class="cls-5" d="M614.68,377.56H636a12,12,0,0,1,12,12v29.86a13,13,0,0,1-13,13H616.45a8.77,8.77,0,0,1-8.77-8.77V384.56A7,7,0,0,1,614.68,377.56Z"/><path class="cls-5" d="M655,377.56h21.3a12,12,0,0,1,12,12v29.86a13,13,0,0,1-13,13H656.75a8.77,8.77,0,0,1-8.77-8.77V384.56a7,7,0,0,1,7-7Z"/><path class="cls-5" d="M695.28,377.56h21.3a12,12,0,0,1,12,12v29.86a13,13,0,0,1-13,13H697.05a8.77,8.77,0,0,1-8.77-8.77V384.56a7,7,0,0,1,7-7Z"/><path class="cls-5" d="M735.58,377.56h21.3a12,12,0,0,1,12,12v29.86a13,13,0,0,1-13,13H737.35a8.77,8.77,0,0,1-8.77-8.77V384.56a7,7,0,0,1,7-7Z"/><path class="cls-5" d="M453.48,466.25h21.3a12,12,0,0,1,12,12v29.86a13,13,0,0,1-13,13H455.25a8.77,8.77,0,0,1-8.77-8.77V473.25a7,7,0,0,1,7-7Z"/><path class="cls-5" d="M493.78,466.25h21.3a12,12,0,0,1,12,12v29.86a13,13,0,0,1-13,13H495.55a8.77,8.77,0,0,1-8.77-8.77V473.25a7,7,0,0,1,7-7Z"/><path class="cls-5" d="M534.08,466.25h21.3a12,12,0,0,1,12,12v29.86a13,13,0,0,1-13,13H535.85a8.77,8.77,0,0,1-8.77-8.77V473.25a7,7,0,0,1,7-7Z"/><path class="cls-5" d="M574.38,466.25h21.3a12,12,0,0,1,12,12v29.86a13,13,0,0,1-13,13H576.15a8.77,8.77,0,0,1-8.77-8.77V473.25a7,7,0,0,1,7-7Z"/><path class="cls-5" d="M614.68,466.25H636a12,12,0,0,1,12,12v29.86a13,13,0,0,1-13,13H616.45a8.77,8.77,0,0,1-8.77-8.77V473.25a7,7,0,0,1,7-7Z"/><path class="cls-5" d="M655,466.25h21.3a12,12,0,0,1,12,12v29.86a13,13,0,0,1-13,13H656.75a8.77,8.77,0,0,1-8.77-8.77V473.25a7,7,0,0,1,7-7Z"/><path class="cls-5" d="M695.28,466.25h21.3a12,12,0,0,1,12,12v29.86a13,13,0,0,1-13,13H697.05a8.77,8.77,0,0,1-8.77-8.77V473.25A7,7,0,0,1,695.28,466.25Z"/><path class="cls-5" d="M735.58,466.25h21.3a12,12,0,0,1,12,12v29.86a13,13,0,0,1-13,13H737.35a8.77,8.77,0,0,1-8.77-8.77V473.25a7,7,0,0,1,7-7Z"/><path class="cls-6" d="M420.24,272.87c23.84,17.88,41.34,22,50.82,22.6a4.77,4.77,0,0,1,3.82,7.12c-10.6,18.72-37.47,67.23-41.34,84.34,0,0,206.4,17.59,303.32,70.58C658.63,509.51,430,512.4,430,512.4S469,587.63,464.73,623.49c-2,16.87,2.67,55.91,12.25,96.51H861.63V0H551.54C530.62,112.22,389.84,250.07,420.24,272.87Z"/></g></g></svg>