<svg xmlns="http://www.w3.org/2000/svg" viewBox="0 0 861.63 720"><defs><style>.cls-1{fill:#dd8262;}.cls-2{fill:#fff;}.cls-3{fill:#f6c9b7;}.cls-4,.cls-6{fill:none;stroke-miterlimit:10;stroke-width:8px;}.cls-4{stroke:#ff0;}.cls-5{fill:#ccc;}.cls-6{stroke:#bfbf00;}</style></defs><title>mouthMid</title><g id="Layer_2" data-name="Layer 2"><g id="Layer_1-2" data-name="Layer 1"><path class="cls-1" d="M440.94,324.57s226.36,71.63.53,247.46L628.77,716.55,821,432.84,669,224.18Z"/><path class="cls-2" d="M466.75,322.7H488a12,12,0,0,1,12,12v29.86a13,13,0,0,1-13,13H468.52a8.77,8.77,0,0,1-8.77-8.77V329.7a7,7,0,0,1,7-7Z"/><path class="cls-2" d="M507,322.7h21.3a12,12,0,0,1,12,12v29.86a13,13,0,0,1-13,13H508.82a8.77,8.77,0,0,1-8.77-8.77V329.7A7,7,0,0,1,507,322.7Z"/><path class="cls-2" d="M547.35,322.7h21.3a12,12,0,0,1,12,12v29.86a13,13,0,0,1-13,13H549.12a8.77,8.77,0,0,1-8.77-8.77V329.7A7,7,0,0,1,547.35,322.7Z"/><path class="cls-2" d="M587.65,322.7h21.3a12,12,0,0,1,12,12v29.86a13,13,0,0,1-13,13H589.42a8.77,8.77,0,0,1-8.77-8.77V329.7A7,7,0,0,1,587.65,322.7Z"/><path class="cls-2" d="M627.95,322.7h21.3a12,12,0,0,1,12,12v29.86a13,13,0,0,1-13,13H629.72a8.77,8.77,0,0,1-8.77-8.77V329.7A7,7,0,0,1,627.95,322.7Z"/><path class="cls-2" d="M668.25,322.7h21.3a12,12,0,0,1,12,12v29.86a13,13,0,0,1-13,13H670a8.77,8.77,0,0,1-8.77-8.77V329.7A7,7,0,0,1,668.25,322.7Z"/><path class="cls-2" d="M708.55,322.7h21.3a12,12,0,0,1,12,12v29.86a13,13,0,0,1-13,13H710.32a8.77,8.77,0,0,1-8.77-8.77V329.7a7,7,0,0,1,7-7Z"/><path class="cls-2" d="M748.85,322.7h21.3a12,12,0,0,1,12,12v29.86a13,13,0,0,1-13,13H750.62a8.77,8.77,0,0,1-8.77-8.77V329.7a7,7,0,0,1,7-7Z"/><path class="cls-2" d="M466.75,521.11H488a12,12,0,0,1,12,12V563a13,13,0,0,1-13,13H468.52a8.77,8.77,0,0,1-8.77-8.77V528.11A7,7,0,0,1,466.75,521.11Z"/><path class="cls-2" d="M507,521.11h21.3a12,12,0,0,1,12,12V563a13,13,0,0,1-13,13H508.82A8.77,8.77,0,0,1,500,567.2V528.11a7,7,0,0,1,7-7Z"/><path class="cls-2" d="M547.35,521.11h21.3a12,12,0,0,1,12,12V563a13,13,0,0,1-13,13H549.12a8.77,8.77,0,0,1-8.77-8.77V528.11a7,7,0,0,1,7-7Z"/><path class="cls-2" d="M587.65,521.11h21.3a12,12,0,0,1,12,12V563a13,13,0,0,1-13,13H589.42a8.77,8.77,0,0,1-8.77-8.77V528.11A7,7,0,0,1,587.65,521.11Z"/><path class="cls-2" d="M627.95,521.11h21.3a12,12,0,0,1,12,12V563a13,13,0,0,1-13,13H629.72a8.77,8.77,0,0,1-8.77-8.77V528.11A7,7,0,0,1,627.95,521.11Z"/><path class="cls-2" d="M668.25,521.11h21.3a12,12,0,0,1,12,12V563a13,13,0,0,1-13,13H670a8.77,8.77,0,0,1-8.77-8.77V528.11a7,7,0,0,1,7-7Z"/><path class="cls-2" d="M708.55,521.11h21.3a12,12,0,0,1,12,12V563a13,13,0,0,1-13,13H710.32a8.77,8.77,0,0,1-8.77-8.77V528.11a7,7,0,0,1,7-7Z"/><path class="cls-2" d="M748.85,521.11h21.3a12,12,0,0,1,12,12V563a13,13,0,0,1-13,13H750.62a8.77,8.77,0,0,1-8.77-8.77V528.11a7,7,0,0,1,7-7Z"/><path class="cls-3" d="M440.56,209.73c21.68,20.45,38.6,26.48,48,28.18a4.77,4.77,0,0,1,3,7.51c-12.63,17.41-44.8,62.58-50.57,79.16,0,0,212.66,58,287.85,134.45a4.77,4.77,0,0,1,1.09,4.9C699.6,550.93,441.48,572,441.48,572s47.31,70.35,47.05,106.47c-.06,8.93,2.42,23.75,6.82,41.5H861.63V0H581.15C528.1,94.82,416.82,187.33,440.56,209.73Z"/><path class="cls-4" d="M449.2,488.66c13.57-21.11,27.14-78.41,0-58.8s-52.77,60.31-33.17,58.8,36.19-78.41,12.06-78.41,7.54,75.94,55.79,65.11,16.59-69.64-7.54-65.11-54.09,92-17.25,102.53,59.46-25.63,26.29-61.82-110.07,28.65-60.31-54.28,58.8,137.21,43.73,138.72"/><path class="cls-5" d="M392.67,481.9l31.46-.12c24.7-.1,60.82-5.21,73.43-10.43,22.57-8.81,28.57-20.7,28.57-20.7l-29.65,8.41A272.59,272.59,0,0,1,423,469.49l-30.38.12Z"/><path class="cls-5" d="M392.67,463.75l31.46-.12c24.7-.1,60.82-5.21,73.43-10.43,22.57-8.81,28.57-20.7,28.57-20.7l-29.65,8.41A272.59,272.59,0,0,1,423,451.34l-30.38.12Z"/><path class="cls-5" d="M392.67,446.46l31.46-.12c24.7-.1,60.82-5.21,73.43-10.43,22.57-8.81,28.57-20.7,28.57-20.7l-29.65,8.41A272.59,272.59,0,0,1,423,434.06l-30.38.16Z"/><path class="cls-5" d="M336.57,434.2h56.1a0,0,0,0,1,0,0v66.92a0,0,0,0,1,0,0H355.44a42.9,42.9,0,0,1-42.9-42.9v0A24,24,0,0,1,336.57,434.2Z"/><path class="cls-5" d="M392.67,501.13l31.46-.12c24.7-.1,60.82-5.21,73.43-10.43,22.57-8.81,28.57-20.7,28.57-20.7l-29.65,8.41A272.59,272.59,0,0,1,423,488.73l-30.38.12Z"/><path class="cls-5" d="M318.78,472.92l-6.48-2.75a217.56,217.56,0,0,0-69.08-16.74L0,444.85v-29l243.22,8.58a217.56,217.56,0,0,1,69.08,16.74l6.48,2.75Z"/><path class="cls-6" d="M424.88,467.21c24.37-6,73.64-38.22,40.46-42.67s-79.79,7.45-64.53,19.85,80.21-32,62.7-48.6-46.78,60.3-4.32,85.63S519.14,442.3,498.52,429,396,458.51,415.46,491.52s60.79,22.31,61.62-26.77-99.58-54.95-6.42-80.89-51.74,140-63.72,130.75"/><path class="cls-4" d="M399.87,460.09c25.09-.22,80.46-20.27,49.19-32.23s-79.37-11.09-67.37,4.48,85.41-12.7,72.19-32.88S394.49,447.39,430,481.81s67.34-24.29,50.33-42S373.74,445,385.11,481.59s54,35.69,66.12-11.89-84.29-76.37,12.35-80.2S381,513.89,371.51,502.11"/></g></g></svg>