<svg xmlns="http://www.w3.org/2000/svg" viewBox="0 0 861.63 720"><defs><style>.cls-1{fill:#dd8262;}.cls-2{fill:#fff;}.cls-3{fill:#f6c9b7;}.cls-4,.cls-6{fill:none;stroke-miterlimit:10;stroke-width:8px;}.cls-4{stroke:#ff0;}.cls-5{fill:#ccc;}.cls-6{stroke:#bfbf00;}</style></defs><title>Asset 5</title><g id="Layer_2" data-name="Layer 2"><g id="Layer_4" data-name="Layer 4"><path class="cls-1" d="M451.25,258.69s235.64,190.4,9.81,366.23l167.7,91.63L821,432.84,669,224.18Z"/><path class="cls-2" d="M473.63,267.84h21.3a12,12,0,0,1,12,12V309.7a13,13,0,0,1-13,13H475.4a8.77,8.77,0,0,1-8.77-8.77V274.84a7,7,0,0,1,7-7Z"/><path class="cls-2" d="M513.93,267.84h21.3a12,12,0,0,1,12,12V309.7a13,13,0,0,1-13,13H515.7a8.77,8.77,0,0,1-8.77-8.77V274.84a7,7,0,0,1,7-7Z"/><path class="cls-2" d="M554.23,267.84h21.3a12,12,0,0,1,12,12V309.7a13,13,0,0,1-13,13H556a8.77,8.77,0,0,1-8.77-8.77V274.84a7,7,0,0,1,7-7Z"/><path class="cls-2" d="M594.53,267.84h21.3a12,12,0,0,1,12,12V309.7a13,13,0,0,1-13,13H596.3a8.77,8.77,0,0,1-8.77-8.77V274.84A7,7,0,0,1,594.53,267.84Z"/><path class="cls-2" d="M634.83,267.84h21.3a12,12,0,0,1,12,12V309.7a13,13,0,0,1-13,13H636.6a8.77,8.77,0,0,1-8.77-8.77V274.84a7,7,0,0,1,7-7Z"/><path class="cls-2" d="M675.13,267.84h21.3a12,12,0,0,1,12,12V309.7a13,13,0,0,1-13,13H676.9a8.77,8.77,0,0,1-8.77-8.77V274.84A7,7,0,0,1,675.13,267.84Z"/><path class="cls-2" d="M715.43,267.84h21.3a12,12,0,0,1,12,12V309.7a13,13,0,0,1-13,13H717.2a8.77,8.77,0,0,1-8.77-8.77V274.84A7,7,0,0,1,715.43,267.84Z"/><path class="cls-2" d="M755.73,267.84H777a12,12,0,0,1,12,12V309.7a13,13,0,0,1-13,13H757.5a8.77,8.77,0,0,1-8.77-8.77V274.84A7,7,0,0,1,755.73,267.84Z"/><path class="cls-2" d="M481.9,576h21.3a12,12,0,0,1,12,12v29.86a13,13,0,0,1-13,13H483.67a8.77,8.77,0,0,1-8.77-8.77V583a7,7,0,0,1,7-7Z"/><path class="cls-2" d="M522.2,576h21.3a12,12,0,0,1,12,12v29.86a13,13,0,0,1-13,13H524a8.77,8.77,0,0,1-8.77-8.77V583a7,7,0,0,1,7-7Z"/><path class="cls-2" d="M562.5,576h21.3a12,12,0,0,1,12,12v29.86a13,13,0,0,1-13,13H564.27a8.77,8.77,0,0,1-8.77-8.77V583A7,7,0,0,1,562.5,576Z"/><path class="cls-2" d="M602.8,576h21.3a12,12,0,0,1,12,12v29.86a13,13,0,0,1-13,13H604.57a8.77,8.77,0,0,1-8.77-8.77V583A7,7,0,0,1,602.8,576Z"/><path class="cls-2" d="M643.1,576h21.3a12,12,0,0,1,12,12v29.86a13,13,0,0,1-13,13H644.87a8.77,8.77,0,0,1-8.77-8.77V583A7,7,0,0,1,643.1,576Z"/><path class="cls-2" d="M683.4,576h21.3a12,12,0,0,1,12,12v29.86a13,13,0,0,1-13,13H685.18a8.77,8.77,0,0,1-8.77-8.77V583a7,7,0,0,1,7-7Z"/><path class="cls-2" d="M723.71,576H745a12,12,0,0,1,12,12v29.86a13,13,0,0,1-13,13H725.48a8.77,8.77,0,0,1-8.77-8.77V583a7,7,0,0,1,7-7Z"/><path class="cls-2" d="M764,576h21.3a12,12,0,0,1,12,12v29.86a13,13,0,0,1-13,13H765.78a8.77,8.77,0,0,1-8.77-8.77V583a7,7,0,0,1,7-7Z"/><path class="cls-3" d="M465.62,144.75c29.43,36,51.89,35.68,51.89,35.68s-56.45,58.64-66.26,78.26c0,0,286.11,119.35,287.75,217.45S461.06,624.92,461.06,624.92s48.09,58.3,56.21,95.08H861.63V0H593.27C528.38,67.83,448.61,124,465.62,144.75Z"/><path class="cls-4" d="M449.2,488.66c13.57-21.11,27.14-78.41,0-58.8s-52.77,60.31-33.17,58.8,36.19-78.41,12.06-78.41,7.54,75.94,55.79,65.11,16.59-69.64-7.54-65.11-54.09,92-17.25,102.53,59.46-25.63,26.29-61.82-110.07,28.65-60.31-54.28,58.8,137.21,43.73,138.72"/><path class="cls-5" d="M392.67,481.9l31.46-.12c24.7-.1,60.82-5.21,73.43-10.43,22.57-8.81,28.57-20.7,28.57-20.7l-29.65,8.41A272.59,272.59,0,0,1,423,469.49l-30.38.12Z"/><path class="cls-5" d="M392.67,463.75l31.46-.12c24.7-.1,60.82-5.21,73.43-10.43,22.57-8.81,28.57-20.7,28.57-20.7l-29.65,8.41A272.59,272.59,0,0,1,423,451.34l-30.38.12Z"/><path class="cls-5" d="M392.67,446.46l31.46-.12c24.7-.1,60.82-5.21,73.43-10.43,22.57-8.81,28.57-20.7,28.57-20.7l-29.65,8.41A272.59,272.59,0,0,1,423,434.06l-30.38.16Z"/><path class="cls-5" d="M336.57,434.2h56.1a0,0,0,0,1,0,0v66.92a0,0,0,0,1,0,0H355.44a42.9,42.9,0,0,1-42.9-42.9v0A24,24,0,0,1,336.57,434.2Z"/><path class="cls-5" d="M392.67,501.13l31.46-.12c24.7-.1,60.82-5.21,73.43-10.43,22.57-8.81,28.57-20.7,28.57-20.7l-29.65,8.41A272.59,272.59,0,0,1,423,488.73l-30.38.12Z"/><path class="cls-5" d="M318.78,472.92l-6.48-2.75a217.56,217.56,0,0,0-69.08-16.74L0,444.85v-29l243.22,8.58a217.56,217.56,0,0,1,69.08,16.74l6.48,2.75Z"/><path class="cls-6" d="M424.88,467.21c24.37-6,73.64-38.22,40.46-42.67s-79.79,7.45-64.53,19.85,80.21-32,62.7-48.6-46.78,60.3-4.32,85.63S519.14,442.3,498.52,429,396,458.51,415.46,491.52s60.79,22.31,61.62-26.77-99.58-54.95-6.42-80.89-51.74,140-63.72,130.75"/><path class="cls-4" d="M399.87,460.09c25.09-.22,80.46-20.27,49.19-32.23s-79.37-11.09-67.37,4.48,85.41-12.7,72.19-32.88S394.49,447.39,430,481.81s67.34-24.29,50.33-42S373.74,445,385.11,481.59s54,35.69,66.12-11.89-84.29-76.37,12.35-80.2S381,513.89,371.51,502.11"/></g></g></svg>