<?xml version="1.0" encoding="utf-8"?>
<!-- Generator: Adobe Illustrator 20.1.0, SVG Export Plug-In . SVG Version: 6.00 Build 0)  -->
<svg version="1.1" id="salt_shaker" xmlns="http://www.w3.org/2000/svg" xmlns:xlink="http://www.w3.org/1999/xlink" x="0px"
	 y="0px" viewBox="0 0 297 309" style="enable-background:new 0 0 297 309;" xml:space="preserve">
<style type="text/css">
	.st0{fill:#FFFFFF;}
	.st1{fill:#C2DBFF;}
	.st2{fill:#B0C4D8;}
	.st3{fill:#D8D8D8;}
	.st4{fill:#014463;}
	.st5{fill:#6D90A8;}
</style>
<g id="shaker_parts">
	<path class="st0" d="M38.3,223.2c3.8,0,6.8,3.1,6.8,6.8s-3.1,6.8-6.8,6.8s-6.8-3.1-6.8-6.8S34.6,223.2,38.3,223.2"/>
	<path class="st0" d="M38.3,250.5c3.8,0,6.8,3.1,6.8,6.8c0,3.8-3.1,6.8-6.8,6.8s-6.8-3.1-6.8-6.8C31.5,253.5,34.6,250.5,38.3,250.5"
		/>
	<path class="st0" d="M65.6,236.8c3.8,0,6.8,3.1,6.8,6.8s-3.1,6.8-6.8,6.8s-6.8-3.1-6.8-6.8C58.8,239.9,61.8,236.8,65.6,236.8"/>
	<path class="st0" d="M86.1,230c3.8,0,6.8,3.1,6.8,6.8s-3.1,6.8-6.8,6.8s-6.8-3.1-6.8-6.8S82.3,230,86.1,230"/>
	<path class="st0" d="M65.6,209.5c3.8,0,6.8,3.1,6.8,6.8c0,3.8-3.1,6.8-6.8,6.8s-6.8-3.1-6.8-6.8C58.8,212.6,61.8,209.5,65.6,209.5"
		/>
	<path class="st0" d="M86.1,257.3c3.8,0,6.8,3.1,6.8,6.8s-3.1,6.8-6.8,6.8s-6.8-3.1-6.8-6.8S82.3,257.3,86.1,257.3"/>
	<path class="st0" d="M58.8,264.1c3.8,0,6.8,3.1,6.8,6.8s-3.1,6.8-6.8,6.8s-6.8-3.1-6.8-6.8S55,264.1,58.8,264.1"/>
	<path class="st0" d="M11.1,243.6c3.8,0,6.8,3.1,6.8,6.8s-3.1,6.8-6.8,6.8s-6.8-3.1-6.8-6.8C4.2,246.7,7.3,243.6,11.1,243.6"/>
	<path class="st0" d="M65.6,291.4c3.8,0,6.8,3.1,6.8,6.8s-3.1,6.8-6.8,6.8c-3.8,0-6.8-3.1-6.8-6.8S61.8,291.4,65.6,291.4"/>
	<path class="st0" d="M24.7,270.9c3.8,0,6.8,3.1,6.8,6.8s-3.1,6.8-6.8,6.8c-3.8,0-6.8-3.1-6.8-6.8C17.9,274,20.9,270.9,24.7,270.9"
		/>
	<path class="st1" d="M148.8,187.7l113.9-63.4c2-1.4,4.1-2.7,6.1-4.8c5.5-5.5,8.2-12.3,8.2-19.8V69.1l-50.4-50.5h-30.7
		c-7.5,0-14.3,2.7-19.8,8.2c-2,2-3.4,4.1-4.8,6.1l-63.4,113.9L148.8,187.7z"/>
	<path class="st0" d="M182.2,44.5c-3.4-2-7.5-0.7-9.5,2.7l-25.2,45c-2,3.4-0.7,7.5,2.7,9.5c1.4,0.7,2,0.7,3.4,0.7
		c2.7,0,4.8-1.4,6.1-3.4l25.2-45C187,50,185.6,45.9,182.2,44.5"/>
	<g>
		<path class="st2" d="M256.5,48.6v30.7c0,7.5-2.7,14.3-8.2,19.8c-2,2-4.1,3.4-6.1,4.8l-42.9,23.9h56.5l-106,59.4l112.8-62.8
			c2-1.4,4.1-2.7,6.1-4.8c5.5-5.5,8.2-12.3,8.2-19.8V69.1L256.5,48.6z"/>
		<polygon class="st0" points="128.3,167.3 199.3,127.7 118.8,127.7 107.9,146.8 108.6,147.5 148.8,187.7 149.8,187.2 148.8,187.7 
					"/>
		<polygon class="st3" points="199.3,127.7 128.3,167.3 148.8,187.7 149.8,187.2 255.8,127.7 		"/>
	</g>
	<path class="st2" d="M82,175.5c-1.4,1.4-1.4,3.4-1.4,4.8c2.7,8.2,7.5,15.7,13,21.1c6.1,6.1,13.6,10.2,21.1,13
		c1.4,0.7,3.4,0,4.8-1.4l17.7-17.7l-37.5-37.5L82,175.5z"/>
	<path class="st4" d="M288.6,61.6L234,7c-1.4-1.4-2.7-2-4.8-2h-33.4c-10.9,0-21.8,4.1-29.3,12.3c-2.7,2.7-4.8,6.1-6.8,9.5l-65.5,118
		l-21.8,21.1c-4.8,4.8-6.8,12.3-4.1,19.1c0.4,1.3,0.9,2.6,1.4,3.9c0.3-0.1,0.6-0.1,0.9-0.1c2.8,0,5.1,2.3,5.1,5.1
		c0,1.5-0.7,2.9-1.7,3.8c1.7,2.9,3.5,5.6,5.6,8.2c0.7-0.4,1.6-0.6,2.5-0.6c2.8,0,5.1,2.3,5.1,5.1c0,1-0.3,2-0.8,2.8
		c2.6,2.4,5.2,4.6,8.1,6.5c0.9-0.9,2.2-1.5,3.6-1.5c2.8,0,5.1,2.3,5.1,5.1c0,0.5-0.1,0.9-0.2,1.3c2.7,1.3,5.5,2.5,8.5,3.4
		c2.1,0.7,4.1,0.7,6.1,0.7c4.8,0,9.5-2,12.9-5.4l21.8-21.8l117.9-65.4c3.4-2.1,6.8-4.1,9.6-6.8c8.2-8.2,12.3-18.4,12.3-29.3V66.4
		C290.6,64.3,289.9,63,288.6,61.6z M120.2,213.6c-1.4,1.4-3.4,1.4-4.8,1.4c-8.2-2.7-15-7.5-21.1-13c-6.1-6.1-10.2-12.9-13-21.1
		c-0.7-1.4,0-3.4,1.4-4.8l17.7-17.7l38.2,38.2L120.2,213.6z M277,99.8c0,7.5-2.7,14.3-8.2,19.8c-2,2.1-4.1,3.4-6.1,4.8l-113.9,63.4
		l-40.2-40.2L172,33.6c1.4-2,2.7-4.1,4.8-6.1c4.8-6.1,11.6-8.9,19.1-8.9h30.7L277,69.1V99.8z"/>
	<path class="st5" d="M129,187l-17,17c-1.4,1.4-3.4,1.4-4.8,1.4c-6.8-2-13.6-6.1-19.1-10.9c2,2.7,4.1,5.5,6.1,7.5
		c6.1,6.1,13.6,10.2,21.1,13c1.4,0.7,3.4,0,4.8-1.4l18.7-17.2L129,187z"/>
</g>
<g>
	<path class="st0" d="M212.1,14.7c7.4,0,13.6,0.5,16,0.7l53.4,54.4c0.1,12-0.7,41-5.3,48.6c-0.8,1.4-8,8.3-66.6,40.4
		c-27,14.8-53.8,28.8-61.1,32.6L104.7,148c26-47.9,65.1-118.9,69.3-123.4l0.1-0.1l0.1-0.1C178.7,18.1,192.2,14.7,212.1,14.7
		 M212.1,11.7c-14.5,0-33.7,1.8-40.3,10.8c-6,6.5-70.8,126-70.8,126l47,46.5c0,0,124.6-64.8,130.8-75.1s5.7-51.4,5.7-51.4l-55-56
		C229.5,12.5,221.9,11.7,212.1,11.7L212.1,11.7z"/>
</g>
</svg>
