<svg xmlns="http://www.w3.org/2000/svg" viewBox="0 0 361.18 528.54"><defs><style>.cls-1{fill:#e8bdb1;}.cls-2{fill:#fcf5f5;}.cls-3{fill:#e8e3e3;}.cls-4{fill:none;stroke:#fcf5f5;stroke-linecap:round;stroke-miterlimit:10;stroke-width:22px;}.cls-5{fill:#f5c8b8;}.cls-6{fill:#d2d0cf;}.cls-7{fill:#1e1e1e;}</style></defs><title>Asset 3</title><g id="Layer_2" data-name="Layer 2"><g id="Layer_2-2" data-name="Layer 2"><rect class="cls-1" x="113.56" y="274.72" width="38.1" height="87.93" rx="4.15" ry="4.15" transform="translate(-18.24 8.22) rotate(-3.32)"/><path class="cls-2" d="M76.63,528.54h140l-11.3-194.77a14.88,14.88,0,0,0-15.67-14l-110,6.38a14.88,14.88,0,0,0-14,15.67Z"/><rect class="cls-3" x="62.43" y="2.58" width="113.64" height="171.78" rx="10.03" ry="10.03" transform="translate(-4.93 7.06) rotate(-3.32)"/><path class="cls-4" d="M197.26,333.46S309.65,415,350.18,269.63"/><path class="cls-4" d="M74,340.05S-52.65,396.9,53.18,504.44"/><circle class="cls-5" cx="128.17" cy="242.16" r="68.05" transform="translate(-13.82 7.83) rotate(-3.32)"/><circle cx="101.89" cy="250.22" r="6.52" transform="translate(-14.33 6.32) rotate(-3.32)"/><circle cx="161.05" cy="246.78" r="6.52" transform="translate(-14.03 9.75) rotate(-3.32)"/><rect class="cls-2" x="60.52" y="138.78" width="127.37" height="70.01" rx="6.71" ry="6.71" transform="translate(-9.86 7.49) rotate(-3.32)"/><circle class="cls-6" cx="121.23" cy="358.14" r="6.52" transform="translate(-20.55 7.63) rotate(-3.32)"/><circle class="cls-6" cx="123.51" cy="397.49" r="6.52" transform="translate(-22.82 7.82) rotate(-3.32)"/><circle class="cls-6" cx="125.87" cy="438.12" r="6.52" transform="translate(-25.18 8.03) rotate(-3.32)"/><circle class="cls-6" cx="153.84" cy="355.6" r="6.52" transform="translate(-20.35 9.51) rotate(-3.32)"/><circle class="cls-6" cx="156.12" cy="394.95" r="6.52" transform="translate(-22.62 9.71) rotate(-3.32)"/><circle class="cls-6" cx="158.48" cy="435.58" r="6.52" transform="translate(-24.97 9.91) rotate(-3.32)"/><path class="cls-7" d="M117.27,257.63h30.09a0,0,0,0,1,0,0v0a15,15,0,0,1-15,15h0a15,15,0,0,1-15-15v0A0,0,0,0,1,117.27,257.63Z" transform="translate(-15.14 8.11) rotate(-3.32)"/><polygon class="cls-6" points="114.06 528.54 102.24 324.9 99.25 325.07 111.06 528.54 114.06 528.54"/></g></g></svg>