<svg xmlns="http://www.w3.org/2000/svg" viewBox="0 0 144.66 165.37"><defs><style>.cls-1,.cls-2{fill:none;stroke-miterlimit:10;stroke-width:8px;}.cls-1{stroke:#ff0;}.cls-2{stroke:#bfbf00;}</style></defs><title>spaghetti</title><g id="Layer_2" data-name="Layer 2"><g id="Layer_1-2" data-name="Layer 1"><path class="cls-1" d="M80.8,114.64c13.57-21.11,27.14-78.41,0-58.8S28,116.15,47.63,114.64,83.81,36.24,59.69,36.24s7.54,75.94,55.79,65.11,16.59-69.64-7.54-65.11-54.09,92-17.25,102.53S150.16,113.14,117,76.95,6.92,105.6,56.67,22.67s58.8,137.21,43.73,138.72"/><path class="cls-2" d="M56.48,93.19c24.37-6,73.64-38.22,40.46-42.67S17.15,58,32.41,70.37s80.21-32,62.7-48.6-46.78,60.3-4.32,85.63S150.74,68.29,130.12,55,27.58,84.5,47.06,117.51s60.79,22.31,61.62-26.77S9.09,35.79,102.26,9.85s-51.74,140-63.72,130.75"/><path class="cls-1" d="M31.46,86.08c25.09-.22,80.46-20.27,49.19-32.23S1.28,42.76,13.29,58.33,98.7,45.63,85.48,25.45,26.09,73.38,61.59,107.8s67.34-24.29,50.33-42S5.34,71,16.71,107.57s54,35.69,66.12-11.89S-1.46,19.32,95.18,15.49,12.64,139.88,3.11,128.09"/></g></g></svg>